<?xml version="1.0" encoding="iso-8859-1"?>
<!-- Generator: Adobe Illustrator 19.0.0, SVG Export Plug-In . SVG Version: 6.00 Build 0)  -->
<svg version="1.1" id="Layer_1" xmlns="http://www.w3.org/2000/svg" xmlns:xlink="http://www.w3.org/1999/xlink" x="0px" y="0px"
	 viewBox="0 0 512 512" style="enable-background:new 0 0 512 512;" xml:space="preserve">
<g>
	<rect y="166.957" style="fill:#004FAC;" width="133.565" height="345.043"/>
	<polygon style="fill:#004FAC;" points="100.174,33.391 100.174,0 33.391,0 33.391,33.391 0,33.391 0,100.174 33.391,100.174 
		33.391,133.565 100.174,133.565 100.174,100.174 133.565,100.174 133.565,33.391 	"/>
	<polygon style="fill:#004FAC;" points="478.609,233.739 478.609,200.348 445.217,200.348 445.217,166.957 178.087,166.957 
		178.087,512 300.522,512 300.522,300.522 389.565,300.522 389.565,512 512,512 512,233.739 	"/>
</g>
<g>
	<polygon style="fill:#FFFFFF;" points="33.391,0 33.391,33.391 0,33.391 0,66.783 33.391,66.783 66.783,66.783 66.783,33.391 
		66.783,0 	"/>
	<polygon style="fill:#FFFFFF;" points="267.13,166.957 267.13,233.739 300.522,233.739 333.913,233.739 333.913,200.348 
		333.913,166.957 	"/>
	<polygon style="fill:#FFFFFF;" points="178.087,166.957 178.087,233.739 211.478,233.739 244.87,233.739 244.87,200.348 
		244.87,166.957 	"/>
	<polygon style="fill:#FFFFFF;" points="0,166.957 0,233.739 33.391,233.739 66.783,233.739 66.783,200.348 66.783,166.957 	"/>
</g>
<polygon points="267.13,478.609 211.478,478.609 211.478,200.348 267.13,200.348 267.13,233.739 300.522,233.739 300.522,200.348 
	445.217,200.348 445.217,166.957 178.087,166.957 178.087,512 300.522,512 300.522,300.522 267.13,300.522 "/>
<polygon points="478.609,233.739 478.609,478.609 422.957,478.609 422.957,300.522 389.565,300.522 389.565,512 512,512 
	512,233.739 "/>
<path d="M0,166.957V512h133.565V166.957H0z M100.174,478.609H33.391V200.348h66.783V478.609z"/>
<rect x="33.391" width="66.783" height="33.391"/>
<rect x="33.391" y="100.174" width="66.783" height="33.391"/>
<rect y="33.391" width="33.391" height="66.783"/>
<rect x="100.174" y="33.391" width="33.391" height="66.783"/>
<rect x="445.217" y="200.348" width="33.391" height="33.391"/>
<rect x="300.522" y="267.13" width="89.043" height="33.391"/>
<g>
</g>
<g>
</g>
<g>
</g>
<g>
</g>
<g>
</g>
<g>
</g>
<g>
</g>
<g>
</g>
<g>
</g>
<g>
</g>
<g>
</g>
<g>
</g>
<g>
</g>
<g>
</g>
<g>
</g>
</svg>
